<?xml version="1.0" encoding="UTF-8"?>
<!DOCTYPE svg PUBLIC "-//W3C//DTD SVG 1.1//EN" "http://www.w3.org/Graphics/SVG/1.1/DTD/svg11.dtd">
<!-- Creator: CorelDRAW -->
<svg xmlns="http://www.w3.org/2000/svg" xml:space="preserve" width="12.2918mm" height="3.4102mm" version="1.1" style="shape-rendering:geometricPrecision; text-rendering:geometricPrecision; image-rendering:optimizeQuality; fill-rule:evenodd; clip-rule:evenodd"
viewBox="0 0 1229.18 341.02"
 xmlns:xlink="http://www.w3.org/1999/xlink"
 xmlns:xodm="http://www.corel.com/coreldraw/odm/2003">
 <defs>
  <style type="text/css">
   <![CDATA[
    .str0 {stroke:#FEFEFE;stroke-width:7.62;stroke-miterlimit:22.9256}
    .fil1 {fill:#0064E0}
    .fil0 {fill:#F5F6F6}
    .fil2 {fill:#FEFEFE;fill-rule:nonzero}
   ]]>
  </style>
 </defs>
 <g id="Layer_x0020_1">
  <metadata id="CorelCorpID_0Corel-Layer"/>
  <rect class="fil0" x="-3.49" y="7.27" width="1229.19" height="341.03"/>
  <rect class="fil1" x="5" y="15.74" width="1203.79" height="324.1" rx="125.12" ry="162.05"/>
  <path class="fil2" d="M177.87 226.49c14.86,0 32.57,-8.27 32.57,-28.43 0,-17.71 -12.67,-21.84 -28.56,-28.04 -10.6,-4.14 -15.51,-6.47 -15.51,-12.15 0.13,-5.82 4.78,-9.18 11.11,-9.18 5.69,0 12.41,2.84 20.03,9.05l10.6 -13.7c-9.18,-7.5 -19.64,-11.63 -31.02,-11.63 -16.41,0.13 -29.46,11.5 -29.46,26.23 0,17.45 13.83,23.78 27.78,28.56 11.12,3.88 15.9,6.34 15.9,13.06 0,5.68 -4.27,9.69 -13.05,9.69 -7.24,0 -16.03,-3.75 -22.88,-11.5l-10.98 13.44c9.69,9.95 21.71,14.6 33.47,14.6zm65.53 0c8.53,0 12.66,-1.81 16.67,-4l-4.27 -13.57c-2.84,1.42 -5.94,2.19 -8.01,2.19 -4.01,0 -5.43,-2.58 -5.43,-8.14l0 -26.75 17.06 0 0 -14.09 -17.06 0 0 -22.36 -16.93 1.81 0 20.55 -7.49 0 0 14.09 7.49 0 0 29.21c0,14.21 7.11,21.06 17.97,21.06zm51.82 0c8.28,0 14.61,-3.1 19,-8.79l0.26 0.13 0 7.5 16.16 0 0 -63.2 -16.93 0 0 7.24 -0.26 0.13c-4.53,-5.43 -11.25,-8.27 -18.61,-8.27 -16.93,0 -29.73,13.57 -29.73,32.69 0,19.52 12.8,32.57 30.11,32.57zm3.24 -15.25c-9.57,0 -16.16,-7.11 -16.16,-17.19 0,-10.85 6.98,-17.7 16.16,-17.7 9.04,0 16.02,7.49 16.02,17.7 0,10.34 -7.37,17.19 -16.02,17.19zm48.33 14.09l16.93 0 0 -29.21c0,-9.56 5.56,-16.54 16.03,-16.54 1.03,0 2.71,0 4.52,0.13l0 -18.48 -1.29 0c-7.37,0 -14.22,3.62 -19,10.08l-0.26 0 0 -9.18 -16.93 0 0 63.2zm67.6 1.16c8.53,0 12.66,-1.81 16.67,-4l-4.27 -13.57c-2.84,1.42 -5.94,2.19 -8.01,2.19 -4.01,0 -5.43,-2.58 -5.43,-8.14l0 -26.75 17.06 0 0 -14.09 -17.06 0 0 -22.36 -16.93 1.81 0 20.55 -7.49 0 0 14.09 7.49 0 0 29.21c0,14.21 7.11,21.06 17.97,21.06zm62.93 -1.16l18.1 0 0 -60.61 0.25 0 40.71 60.61 18.23 0 0 -91.76 -17.97 0 0 61.91 -0.26 0 -41.22 -61.91 -17.84 0 0 91.76zm125.88 1.16c19.65,0 33.48,-13.44 33.48,-32.69 0,-19.39 -13.83,-32.57 -33.48,-32.57 -20.16,0 -33.6,13.7 -33.6,32.57 0,18.86 13.44,32.69 33.6,32.69zm0 -15.25c-9.69,0 -16.41,-7.62 -16.41,-17.44 0,-9.96 6.59,-17.45 16.41,-17.45 9.31,0 16.29,7.11 16.29,17.45 0,10.33 -7.24,17.44 -16.29,17.44zm58.55 14.09l14.61 0 11.24 -38.38 0.13 0 11.37 38.38 14.61 0 21.45 -63.2 -16.93 0 -12.02 38.64 -0.26 0 -11.37 -38.64 -13.57 0 -11.25 38.64 -0.13 0 -12.14 -38.64 -17.06 0 21.32 63.2z"/>
  <path class="fil2 str0" d="M1012.79 198.38l-39.15 -51.11 18.81 0 22.19 30.61c2.41,3.3 4.64,6.73 6.67,10.29 1.57,-2.69 3.72,-5.92 6.56,-9.71l23.05 -31.19 18.05 0 -39.27 51.11 -16.91 0z"/>
 </g>
</svg>
